<?xml version="1.0" standalone="no"?>
<!DOCTYPE svg PUBLIC "-//W3C//DTD SVG 20010904//EN"
 "http://www.w3.org/TR/2001/REC-SVG-20010904/DTD/svg10.dtd">
<svg version="1.0" xmlns="http://www.w3.org/2000/svg"
 width="2000.000000pt" height="2000.000000pt" viewBox="0 0 2000.000000 2000.000000"
 preserveAspectRatio="xMidYMid meet">
<metadata>
Created by potrace 1.14, written by Peter Selinger 2001-2017
</metadata>
<g transform="translate(0.000000,2000.000000) scale(0.100000,-0.100000)"
fill="#000000" stroke="none">
<path d="M8867 11403 c-2 -1 -16 -3 -32 -5 -30 -4 -30 -5 -126 -292 -52 -158
-96 -290 -97 -294 -1 -4 -5 -16 -8 -27 -11 -39 -145 -460 -151 -475 -4 -8 -7
-17 -8 -20 -1 -3 -4 -12 -8 -20 -3 -8 -15 -49 -27 -90 -12 -41 -26 -84 -30
-95 -12 -29 -55 -183 -115 -410 l-52 -200 -22 75 c-12 41 -25 84 -29 95 -3 11
-7 22 -7 25 -6 26 -27 98 -32 110 -3 8 -7 21 -9 27 -1 7 -12 43 -24 80 -12 38
-23 75 -25 83 -2 8 -37 116 -80 240 -42 124 -78 230 -79 235 -2 6 -6 17 -9 25
-3 8 -20 56 -37 105 -17 50 -37 104 -43 120 -6 17 -12 35 -13 40 -1 6 -27 80
-57 165 -31 85 -74 209 -97 275 -23 66 -48 139 -57 161 l-15 42 -346 -4 c-190
-3 -347 -6 -349 -8 -4 -3 22 -81 37 -111 5 -11 39 -96 76 -190 36 -93 95 -244
130 -335 36 -91 71 -179 79 -197 8 -17 15 -35 15 -41 0 -5 8 -29 19 -53 17
-42 32 -78 36 -89 1 -3 5 -14 10 -25 5 -11 37 -94 72 -185 108 -277 134 -344
144 -365 5 -11 20 -49 33 -85 13 -36 30 -78 37 -95 7 -16 13 -32 14 -35 4 -13
18 -47 25 -65 9 -20 54 -135 180 -460 34 -88 68 -173 75 -190 7 -16 25 -63 40
-102 14 -40 32 -76 38 -80 10 -6 78 -6 464 1 50 1 94 4 96 6 2 3 25 66 52 140
26 74 62 176 80 225 18 50 50 140 70 200 21 61 41 115 45 120 4 6 11 26 15 45
4 19 11 40 15 45 4 6 11 24 15 40 10 37 9 34 24 70 6 17 19 50 27 75 9 25 20
54 24 65 5 11 23 63 41 115 18 52 38 107 46 123 7 15 11 27 8 27 -3 0 0 10 7
23 6 12 13 28 14 36 2 8 16 51 32 95 17 45 49 135 73 201 23 66 47 131 52 145
6 14 11 32 13 40 2 8 9 30 17 50 8 19 33 87 55 150 67 192 224 634 232 655 23
57 46 53 -287 51 -167 0 -305 -2 -306 -3z"/>
<path d="M9919 11366 c-1 0 -3 -612 -4 -1358 -2 -1103 0 -1359 10 -1368 9 -8
15 -8 20 0 3 6 11 7 17 4 9 -6 349 -9 373 -4 6 1 12 2 15 1 16 -6 120 -5 120
1 0 4 12 3 28 0 15 -4 39 -6 53 -4 l26 3 -1 1362 -1 1362 -327 1 c-181 1 -329
1 -329 0z"/>
<path d="M11254 11358 c-3 -4 -7 -146 -9 -315 -3 -170 -7 -445 -10 -613 -13
-847 -17 -1163 -18 -1465 l-2 -329 185 -2 c102 -1 358 -5 570 -9 212 -3 530
-8 708 -10 l322 -5 1 28 c0 15 2 125 4 244 l3 218 -21 -2 c-12 0 -231 3 -487
7 -256 4 -499 8 -540 9 l-75 1 2 225 c0 124 2 279 2 345 l1 120 102 -2 c57 -2
108 -5 115 -8 7 -2 13 0 13 6 0 6 5 7 10 4 6 -4 137 -8 291 -10 210 -3 281 -1
284 8 5 14 14 58 20 102 3 17 18 104 35 195 16 90 28 165 26 167 -2 2 -637 15
-673 14 -7 -1 -19 -1 -25 -2 -64 -3 -180 6 -185 14 -3 5 -5 48 -3 96 1 47 3
172 5 276 2 105 4 192 4 196 1 5 118 4 744 -5 l327 -5 1 47 c0 26 1 134 3 240
1 106 0 195 -4 197 -6 4 -576 14 -1101 20 -136 1 -252 5 -258 9 -6 4 -11 3
-11 -3 0 -6 -6 -8 -14 -5 -22 8 -337 10 -342 2z"/>
<path d="M13629 11353 c-2 -27 -15 -391 -25 -693 -2 -85 -6 -216 -9 -290 -2
-74 -7 -214 -9 -310 -3 -96 -8 -242 -11 -325 -3 -82 -7 -224 -10 -315 -3 -91
-7 -223 -10 -295 -2 -71 -7 -212 -9 -311 l-5 -182 37 0 c20 0 123 -3 227 -6
105 -4 237 -8 295 -9 l105 -2 1 45 c1 25 5 137 8 250 8 250 15 461 22 640 3
74 5 150 4 168 -1 30 8 38 41 34 4 -1 89 -4 190 -7 101 -3 238 -8 304 -10 222
-7 276 -7 282 -1 4 4 8 17 10 29 2 12 10 56 18 97 8 41 17 85 20 98 2 13 7 31
9 40 3 9 8 33 10 52 2 19 10 56 16 82 7 26 10 52 8 59 -3 9 -29 14 -79 15 -79
2 -304 10 -614 20 -104 3 -192 7 -194 9 -4 5 -4 39 4 280 8 251 12 328 13 336
1 3 35 5 75 3 71 -3 258 -9 577 -19 91 -3 220 -7 288 -9 88 -3 124 -1 127 7 3
7 6 82 8 168 3 86 7 161 11 167 3 6 2 13 -3 17 -6 3 -8 11 -5 18 10 27 10 88
0 96 -12 8 -102 12 -328 15 -76 0 -138 3 -138 6 0 3 -51 5 -113 6 -102 1 -303
7 -652 19 -71 3 -208 7 -303 10 -95 2 -177 7 -182 10 -6 4 -11 -2 -11 -12z"/>
<path d="M5198 11294 c-2 -1 -28 -5 -58 -8 -30 -3 -65 -7 -76 -10 -12 -2 -39
-7 -60 -10 -22 -4 -64 -13 -94 -22 -30 -9 -55 -15 -55 -15 0 6 -160 -66 -205
-91 -208 -117 -372 -306 -473 -545 -35 -81 -82 -239 -92 -307 -3 -21 -7 -48
-10 -60 -25 -114 -25 -549 0 -678 3 -13 10 -50 15 -83 30 -184 106 -386 192
-510 16 -22 36 -51 46 -65 28 -41 167 -174 198 -190 16 -8 35 -21 43 -28 18
-17 143 -75 216 -100 79 -27 196 -50 295 -58 67 -5 292 -5 340 0 128 14 165
21 245 42 50 14 97 26 105 29 8 2 16 4 18 5 1 2 5 3 10 4 11 2 186 89 192 95
3 4 31 23 63 45 81 55 190 167 253 262 30 45 54 86 54 92 0 6 4 12 8 14 4 2
20 32 35 68 16 36 32 74 37 85 9 18 41 127 46 150 1 6 7 37 15 70 17 81 17 82
26 150 15 119 7 551 -11 607 -3 7 -7 32 -10 55 -13 104 -109 413 -141 453 -7
8 -26 40 -43 70 -79 141 -244 292 -400 366 -107 51 -114 54 -137 59 -11 2 -45
11 -75 19 -30 9 -71 18 -90 21 -20 3 -47 8 -60 11 -25 5 -358 13 -362 8z m162
-479 c22 -3 54 -12 70 -20 17 -9 30 -13 30 -10 0 7 79 -44 118 -77 18 -15 31
-28 28 -28 -2 0 8 -13 24 -30 30 -32 89 -148 115 -224 17 -51 43 -168 50 -221
3 -16 6 -43 9 -60 19 -126 25 -422 12 -568 -9 -94 -39 -234 -63 -297 -4 -8 -7
-17 -8 -20 -45 -128 -165 -240 -285 -265 -63 -14 -213 -12 -265 2 -107 30
-203 98 -265 188 -40 58 -96 200 -115 290 -14 68 -17 88 -30 178 -22 161 -23
501 -1 622 4 22 15 86 22 124 14 73 89 251 107 251 4 0 7 6 7 12 0 18 89 97
130 114 19 9 43 20 52 25 10 5 41 12 70 15 29 4 55 8 56 9 4 4 59 -1 132 -10z"/>
<path d="M2986 11223 c-1 -1 -60 -5 -131 -9 -72 -3 -150 -8 -175 -9 -25 -2
-52 -4 -61 -4 -13 -1 -34 -45 -44 -91 -3 -13 -68 -207 -75 -225 -14 -32 -498
-1499 -504 -1526 -3 -13 -18 -76 -34 -139 l-30 -115 -19 45 c-11 25 -24 56
-28 70 -4 14 -19 49 -33 79 -13 30 -25 60 -26 65 -1 6 -9 27 -18 46 -9 19 -29
64 -43 100 -15 36 -56 125 -91 198 -35 73 -64 135 -64 137 0 2 -36 79 -80 170
-44 91 -80 168 -80 170 0 2 -32 70 -71 152 -38 81 -81 171 -94 198 -13 28 -48
102 -78 165 -30 63 -74 158 -98 210 -83 181 -91 195 -119 194 -14 -1 -83 -5
-155 -9 -71 -4 -163 -8 -202 -9 -40 -1 -73 -3 -73 -6 0 -3 -17 -6 -37 -6 -21
-1 -47 -2 -58 -3 -20 -1 -20 -8 -20 -1362 1 -1164 3 -1361 15 -1369 8 -5 18
-6 23 -3 5 3 41 7 80 9 40 2 108 6 152 9 44 4 125 8 180 11 87 4 135 8 156 13
13 3 -13 849 -36 1191 -3 36 -7 113 -10 171 -3 59 -7 116 -10 128 -7 36 5 23
29 -31 65 -146 87 -195 96 -210 6 -10 10 -25 10 -33 0 -8 5 -15 10 -15 6 0 10
-6 10 -12 -1 -25 147 -336 351 -743 187 -370 209 -410 230 -409 29 1 275 15
344 20 28 2 66 4 86 5 20 1 41 4 46 8 6 3 20 35 32 71 12 36 25 72 28 80 3 8
7 22 9 30 2 8 7 23 12 35 13 26 37 88 37 95 0 3 5 19 12 35 6 17 35 98 64 180
28 83 57 161 62 175 6 14 11 27 12 30 14 48 36 111 46 135 7 17 13 32 14 35 0
3 31 97 68 210 37 113 81 251 98 308 18 56 35 102 39 102 4 0 8 -30 10 -67 3
-109 10 -250 26 -488 2 -38 7 -110 10 -160 5 -94 7 -117 18 -200 3 -27 8 -75
11 -105 3 -30 10 -100 16 -155 6 -55 12 -116 14 -135 13 -131 17 -166 21 -172
2 -3 23 -5 47 -3 23 2 92 6 152 9 61 4 151 9 200 12 50 3 119 7 155 9 73 4 69
-4 56 100 -4 28 -9 70 -12 95 -3 25 -7 59 -10 75 -2 17 -6 55 -10 85 -6 64
-10 96 -18 165 -13 105 -16 131 -21 175 -2 25 -6 56 -9 70 -2 14 -7 52 -10 85
-4 33 -9 78 -12 100 -3 22 -7 56 -9 75 -3 40 -14 129 -21 180 -3 19 -7 55 -9
80 -3 25 -6 59 -9 75 -2 17 -7 55 -10 85 -4 30 -9 71 -11 90 -3 19 -7 60 -10
90 -4 30 -8 66 -10 80 -3 14 -7 52 -11 85 -3 33 -7 67 -8 75 -2 13 -8 57 -22
185 -5 40 -12 100 -20 165 -2 19 -6 55 -9 80 -3 25 -8 63 -11 85 -2 22 -7 60
-9 85 -7 63 -15 131 -20 155 -2 11 -4 37 -4 58 l-1 38 -91 -3 c-50 -2 -91 -4
-93 -5z"/>
<path d="M15919 11191 c-1 -3 -2 -28 -4 -56 -1 -27 -6 -113 -9 -190 -4 -77 -9
-180 -11 -230 -9 -217 -15 -337 -20 -430 -5 -93 -8 -160 -20 -450 -3 -60 -7
-157 -10 -215 -3 -58 -8 -148 -10 -200 -4 -93 -11 -254 -20 -435 -6 -129 -16
-326 -20 -427 l-4 -88 57 -1 c70 -2 205 -7 332 -14 52 -2 136 -7 186 -9 l91
-4 1 42 c1 22 4 91 7 151 8 176 16 343 20 445 3 52 7 142 10 200 2 58 7 166
10 240 3 74 8 173 10 220 3 47 7 137 10 200 3 63 7 160 10 215 3 55 7 154 10
220 3 66 8 167 11 225 8 192 12 274 19 423 l6 147 -53 1 c-29 0 -82 2 -118 4
-36 2 -130 6 -210 9 -80 4 -175 9 -212 10 -38 2 -68 1 -69 -3z"/>
<path d="M17325 11040 c-2 -4 31 -76 74 -161 240 -473 334 -655 343 -666 6 -7
7 -13 3 -13 -4 0 -3 -6 3 -12 5 -7 64 -119 130 -249 l120 -235 -94 -140 c-52
-76 -101 -147 -109 -157 -8 -9 -15 -20 -15 -23 0 -8 -44 -69 -52 -72 -5 -2 -8
-8 -8 -13 0 -5 -22 -40 -50 -79 -27 -39 -50 -74 -50 -79 0 -5 -3 -11 -7 -13
-12 -5 -53 -66 -53 -77 0 -6 -6 -14 -13 -18 -7 -4 -28 -33 -47 -63 -19 -30
-37 -57 -40 -60 -3 -3 -70 -102 -150 -220 -79 -118 -166 -246 -193 -283 -26
-38 -46 -71 -43 -74 5 -5 44 -9 201 -18 50 -3 117 -7 150 -9 33 -3 110 -8 170
-11 61 -4 132 -8 158 -10 38 -3 50 0 55 13 4 10 46 76 93 147 133 202 162 248
177 276 7 15 22 35 31 46 10 11 22 29 25 41 4 12 11 22 16 22 5 0 12 9 15 20
3 11 12 26 18 33 7 7 19 24 27 38 52 87 186 298 190 299 3 0 11 -15 19 -32 34
-78 77 -163 84 -166 4 -2 7 -9 7 -15 0 -6 18 -47 39 -92 50 -102 182 -377 250
-520 76 -158 87 -178 105 -181 8 -1 66 -5 128 -8 147 -9 213 -13 505 -32 l82
-5 -61 118 c-33 65 -108 212 -166 326 -59 115 -132 258 -163 318 -31 60 -53
109 -50 109 3 0 1 4 -5 8 -6 4 -41 67 -78 140 -36 73 -104 206 -150 295 -67
131 -81 166 -72 179 6 9 18 26 26 38 8 12 27 40 43 61 15 21 27 43 27 48 0 5
4 11 8 13 7 3 129 178 157 225 6 9 14 22 18 27 5 6 75 110 157 231 82 121 154
227 160 235 97 142 239 354 237 356 -2 2 -151 12 -282 19 -49 3 -119 7 -154
10 -36 2 -115 7 -175 10 l-111 5 -39 -62 c-22 -35 -73 -114 -113 -176 -40 -62
-73 -117 -73 -122 0 -6 -4 -10 -8 -10 -5 0 -15 -12 -23 -27 -8 -15 -33 -57
-57 -93 -23 -36 -47 -72 -52 -80 -113 -176 -164 -250 -171 -243 -4 4 -19 37
-34 73 -37 89 -57 132 -138 300 -110 229 -141 295 -142 300 -7 29 -99 200
-108 201 -7 1 -39 3 -72 4 -33 2 -98 6 -145 10 -47 4 -121 8 -165 11 -126 6
-247 14 -283 18 -18 2 -34 0 -37 -4z"/>
</g>
</svg>
